# xmcd
#
# Track frame offsets:
#	150
#	15824
#	29667
#	46293
#	63437
#	78932
#	94155
#	112049
#	126149
#	141284
#	157756
#	171775
#	184609
#	201599
#	217422
#	233392
#	246603
#	261107
#	276781
#
# Disc length: 3947 seconds
#
# Revision: 1
# Processed by: cddbd v1.5.2PL0 Copyright (c) Steve Scherf et al.
# Submitted via: audiograbber 1.83.01
#
DISCID=0f0f6913
DTITLE=Various Artist - Hott Country 170 
DYEAR=2010
DGENRE=Country
TTITLE0=Toby Keith - Every Dog Has It's Day
TTITLE1=Kellie Pickler - Makin' Me Fall In Love Again ( Single Edit )
TTITLE2=High Valley - I Will Stand By You
TTITLE3=Ladies Of The Canyon - Follow Me Down
TTITLE4=Laura Bell Bundy - Giddy On Up
TTITLE5=Blake Shelton - All About Tonight
TTITLE6=Diane Chase - I Miss Us
TTITLE7=Gretchen Wilson - Work Hard Play Hard
TTITLE8=Jason Blaine - Numb
TTITLE9=Brad Johner - Saved By Grace
TTITLE10=Josh Turner - All Over Me ( Radio Edit )
TTITLE11=Little Big Town - Little White Church
TTITLE12=Wyatt - Questions
TTITLE13=Brad Paisley - Water
TTITLE14=James Otto - Groovy Little Summer Song
TTITLE15=Carrie Underwood - Undo It
TTITLE16=Jerrod Niemann - Lover Lover
TTITLE17=Gloriana - The World Is Ours Tonight
TTITLE18=good Brothers - Hot Knife Boogie ( 1980 )
EXTD=April 2010
EXTT0=
EXTT1=
EXTT2=
EXTT3=
EXTT4=
EXTT5=
EXTT6=
EXTT7=
EXTT8=
EXTT9=
EXTT10=
EXTT11=
EXTT12=
EXTT13=
EXTT14=
EXTT15=
EXTT16=
EXTT17=
EXTT18=
PLAYORDER=
